<svg width="44" height="16" viewBox="0 0 44 16" fill="none" xmlns="http://www.w3.org/2000/svg">
<path id="Shape" d="M8.62262 15.0653C8.76992 14.9179 8.76992 14.6784 8.62262 14.5311L2.46846 8.37568L42.7981 8.37568C43.0066 8.37568 43.1758 8.20644 43.1758 7.99791C43.1758 7.78938 43.0066 7.62014 42.7981 7.62014L2.46846 7.62014L8.62186 1.46547C8.76916 1.31814 8.76916 1.07863 8.62186 0.931299C8.47456 0.783968 8.2351 0.783968 8.0878 0.931299L1.29005 7.73045C1.25531 7.7652 1.22736 7.80751 1.20772 7.8536C1.18883 7.89969 1.17901 7.9488 1.17901 7.99791C1.17901 8.04702 1.18883 8.09613 1.20772 8.14222C1.2266 8.18906 1.25455 8.23062 1.29005 8.26537L8.0878 15.0645C8.23586 15.2126 8.47456 15.2126 8.62262 15.0653Z" stroke="black" stroke-width="1.2"/>
</svg>
