<svg width="24" height="24" viewBox="0 0 24 24" fill="none" xmlns="http://www.w3.org/2000/svg">
<path d="M7.86669 10.0625C8.41869 10.0625 8.86669 9.6145 8.86669 9.0625V5.1625C8.86669 3.419 10.2852 2 12.0292 2C13.7727 2 15.1917 3.419 15.1917 5.1625V9.0625C15.1917 9.6145 15.6397 10.0625 16.1917 10.0625C16.7437 10.0625 17.1917 9.6145 17.1917 9.0625V5.1625C17.1917 2.316 14.8757 0 12.0292 0C9.18319 0 6.86719 2.316 6.86719 5.1625V9.0625C6.86669 9.6145 7.31469 10.0625 7.86669 10.0625Z" fill="black"/>
<path d="M23.5005 7.81555H18.192V9.06255C18.192 10.1656 17.295 11.0626 16.192 11.0626C15.0895 11.0626 14.192 10.1656 14.192 9.06255V7.81555H9.86747V9.06255C9.86747 10.1656 8.97047 11.0626 7.86747 11.0626C6.76447 11.0626 5.86747 10.1656 5.86747 9.06255V7.81555H0.500474C0.224474 7.81555 0.0539735 8.03305 0.119474 8.30105L3.61797 22.5501C3.82947 23.3511 4.67197 24.0001 5.50047 24.0001H18.5005C19.3295 24.0001 20.1715 23.3506 20.384 22.5501L23.882 8.30105C23.947 8.03255 23.777 7.81555 23.5005 7.81555Z" fill="black"/>
</svg>
