<svg xmlns="http://www.w3.org/2000/svg" width="54" height="54" viewBox="0 0 54 54">
    <g fill="none" fill-rule="evenodd">
        <circle cx="27" cy="27" r="27" fill="#000" fill-opacity=".405"/>
        <path fill="#FFF" d="M27.162 7c11.018 0 19.982 8.963 19.982 19.982 0 11.02-8.964 19.983-19.982 19.983-11.02 0-19.984-8.964-19.984-19.983S16.143 7 27.162 7zm0 1.564c-10.156 0-18.42 8.263-18.42 18.418 0 10.156 8.264 18.42 18.42 18.42 10.155 0 18.417-8.264 18.417-18.42 0-10.155-8.262-18.418-18.417-18.418zm-1.609 10.118a.3.3 0 0 1 .3.3v16a.3.3 0 0 1-.3.3h-1a.3.3 0 0 1-.3-.3v-16a.3.3 0 0 1 .3-.3h1zm5.233 0a.3.3 0 0 1 .3.3v16a.3.3 0 0 1-.3.3h-1a.3.3 0 0 1-.3-.3v-16a.3.3 0 0 1 .3-.3h1z"/>
    </g>
</svg>
