<svg width="54" height="54" viewBox="0 0 54 54" fill="none" xmlns="http://www.w3.org/2000/svg">
<g id="PLAY">
<path id="Oval" fill-rule="evenodd" clip-rule="evenodd" d="M27 54C41.9117 54 54 41.9117 54 27C54 12.0883 41.9117 0 27 0C12.0883 0 0 12.0883 0 27C0 41.9117 12.0883 54 27 54Z" fill="black" fill-opacity="0.405349"/>
<path id="Combined Shape" fill-rule="evenodd" clip-rule="evenodd" d="M8.74173 26.9824C8.74173 16.8274 17.0057 8.56437 27.1617 8.56437C37.3167 8.56437 45.5787 16.8274 45.5787 26.9824C45.5787 37.1384 37.3167 45.4014 27.1617 45.4014C17.0057 45.4014 8.74173 37.1384 8.74173 26.9824ZM7.17773 26.9824C7.17773 38.0014 16.1427 46.9654 27.1617 46.9654C38.1797 46.9654 47.1437 38.0014 47.1437 26.9824C47.1437 15.9634 38.1797 7.00037 27.1617 7.00037C16.1427 7.00037 7.17773 15.9634 7.17773 26.9824ZM24.5528 35.2822C24.3868 35.2822 24.2528 35.1482 24.2528 34.9822V18.9822C24.2528 18.8162 24.3868 18.6822 24.5528 18.6822H25.5528C25.7188 18.6822 25.8528 18.8162 25.8528 18.9822V34.9822C25.8528 35.1482 25.7188 35.2822 25.5528 35.2822H24.5528ZM29.7862 35.2822C29.6202 35.2822 29.4862 35.1482 29.4862 34.9822V18.9822C29.4862 18.8162 29.6202 18.6822 29.7862 18.6822H30.7862C30.9522 18.6822 31.0862 18.8162 31.0862 18.9822V34.9822C31.0862 35.1482 30.9522 35.2822 30.7862 35.2822H29.7862Z" fill="white"/>
</g>
</svg>
