<svg width="16" height="43" viewBox="0 0 16 43" fill="none" xmlns="http://www.w3.org/2000/svg">
<path id="Shape" d="M15.2445 35.5532C15.0971 35.4059 14.8576 35.4059 14.7103 35.5532L8.55488 41.7073V1.37769C8.55488 1.16921 8.38564 1 8.17711 1C7.96858 1 7.79934 1.16921 7.79934 1.37769V41.7073L1.64467 35.5539C1.49734 35.4066 1.25783 35.4066 1.1105 35.5539C0.963167 35.7012 0.963167 35.9407 1.1105 36.088L7.90965 42.8857C7.9444 42.9205 7.98671 42.9484 8.0328 42.9681C8.07889 42.9869 8.128 42.9968 8.17711 42.9968C8.22622 42.9968 8.27533 42.9869 8.32142 42.9681C8.36826 42.9492 8.40982 42.9212 8.44457 42.8857L15.2437 36.088C15.3918 35.9399 15.3918 35.7012 15.2445 35.5532Z" stroke="black" stroke-width="1.2"/>
</svg>
