<svg xmlns="http://www.w3.org/2000/svg" width="178" height="38" viewBox="0 0 178 38">
    <g fill="none" fill-rule="evenodd">
        <g fill="#231F20">
            <path d="M26.575 20.212c.016.03.034.058.05.09.105.196.215.389.325.582.033.053.062.108.094.164.103.172.209.344.314.514.05.072.09.144.137.217a22.1 22.1 0 0 0 .771 1.132l.202.28.288.38c.079.1.16.2.238.3.092.117.188.23.282.343.09.11.179.215.273.318.09.105.178.21.27.312l.305.334.264.282c.111.115.224.228.338.343.035.036.075.073.11.108.363-.488.7-1 1.004-1.532-3.584-3.818-5.898-9.412-6.211-14.923.003-.397.007-.856.007-1.123l-1.74-.533a.852.852 0 0 0-.086.373c0 5.635-2.165 11.788-5.715 15.681-3.55-3.893-5.713-10.046-5.713-15.681a.871.871 0 0 0-.095-.39l-1.733.53c0 .265.005.74.008 1.146-.3 5.256-2.418 10.593-5.722 14.385.289.558.61 1.096.967 1.61.09-.094.18-.192.27-.288a20.726 20.726 0 0 0 .573-.644c.088-.099.172-.196.257-.298.1-.12.197-.24.295-.361.075-.095.148-.188.223-.28.1-.136.203-.267.304-.402.063-.084.125-.173.188-.258a23.384 23.384 0 0 0 .785-1.154c.04-.063.08-.125.117-.188.112-.18.223-.36.33-.542.027-.044.051-.089.077-.133.118-.203.234-.408.343-.613.01-.017.019-.036.029-.051a23.348 23.348 0 0 0 1.868-4.58 23.627 23.627 0 0 0 5.359 9.476 22.269 22.269 0 0 1-6.884 4.374c.618.408 1.262.776 1.938 1.094a24.032 24.032 0 0 0 5.114-3.224c-.007-.007-.013-.016-.023-.023.385-.318.76-.647 1.125-.988.363.341.737.67 1.124.988-.008.007-.014.016-.024.023a24.023 24.023 0 0 0 5.5 3.402c.709-.311 1.39-.676 2.04-1.086a22.232 22.232 0 0 1-7.37-4.56 23.64 23.64 0 0 0 5.36-9.477 23.322 23.322 0 0 0 1.85 4.55"/>
            <path d="M33.919 23.61v-.004c-1.874 7.116-8.244 12.37-15.792 12.37-9.02 0-16.357-7.49-16.357-16.693 0-9.204 7.338-16.69 16.357-16.69 7.483 0 13.804 5.16 15.739 12.173 0-.002 0-.004-.003-.007.182.108 1.498-.106 1.702-.508C33.412 6.488 26.411.784 18.127.784 8.131.784 0 9.082 0 19.283c0 10.2 8.131 18.5 18.127 18.5 8.523 0 15.688-6.038 17.613-14.144-.243-.158-1.441-.145-1.821-.028"/>
        </g>
        <path fill="#231F20" stroke="#000" stroke-linecap="round" stroke-linejoin="round" d="M52.154 22.597c.725 0 1.422-.163 1.996-.49.3-.175.423-.303.519-.303.082 0 .15.07.15.128 0 .093-.177.222-.41.362-.615.361-1.353.572-2.254.572-2.583 0-4.155-1.67-4.155-3.98C48 16.564 49.599 15 52.14 15c.862 0 1.6.198 2.256.56.3.164.423.28.423.35 0 .07-.068.129-.15.129-.096 0-.219-.117-.52-.28a4.17 4.17 0 0 0-2.008-.49c-2.282 0-3.758 1.412-3.758 3.582 0 2.194 1.49 3.746 3.772 3.746M58.365 19.46c2.43 0 3.585-.786 3.585-2.115 0-1.439-1.335-2.067-3.285-2.067-.375 0-.855.024-1.29.085v4.06c.315.024.69.036.99.036M63 22.916c0 .06-.075.084-.18.084-.15 0-.225-.06-.315-.17l-2.835-3.177c-.39.06-.825.084-1.305.084-.18 0-.72-.012-.99-.036v3.142c0 .109-.06.157-.18.157-.135 0-.195-.048-.195-.157v-7.432c0-.205 0-.278.36-.326.33-.049.855-.085 1.32-.085 2.13 0 3.69.761 3.69 2.345 0 1.135-.795 1.92-2.31 2.235l2.865 3.19c.06.073.075.11.075.146M65.35 22.842c0 .11-.056.158-.168.158-.126 0-.182-.049-.182-.158v-7.684c0-.11.056-.158.168-.158.126 0 .182.049.182.158v7.684zM67.287 16.797c0-1.097 1.077-1.797 2.771-1.797.69 0 1.422.117 2.111.478.288.152.417.257.417.339 0 .058-.086.14-.173.14-.1 0-.215-.105-.445-.222a3.913 3.913 0 0 0-1.924-.467c-1.464 0-2.37.607-2.37 1.506 0 2.124 5.098 1.54 5.098 4.05 0 1.295-1.35 2.042-3.044 2.042-.976 0-1.737-.246-2.355-.63-.244-.152-.373-.27-.373-.35 0-.06.072-.13.172-.13.13 0 .173.094.503.293.589.35 1.264.548 2.068.548 1.493 0 2.642-.677 2.642-1.75 0-2.276-5.098-1.681-5.098-4.05M77.673 22.841c0 .11-.055.159-.166.159-.125 0-.18-.049-.18-.159v-7.56H74.18c-.125 0-.18-.049-.18-.147 0-.085.055-.134.18-.134h6.64c.125 0 .18.049.18.147 0 .085-.055.134-.18.134h-3.147v7.56zM83.35 22.842c0 .11-.056.158-.168.158-.126 0-.182-.049-.182-.158v-7.684c0-.11.056-.158.168-.158.126 0 .182.049.182.158v7.684zM90.522 20.156l-1.976-4.72-2.041 4.72h4.017zM92 22.903c0 .06-.04.097-.13.097-.132 0-.184-.06-.236-.17l-.995-2.396h-4.252l-1.034 2.397c-.052.109-.104.169-.222.169-.092 0-.131-.036-.131-.097 0-.048.026-.109.04-.145l3.283-7.564c.053-.134.131-.194.236-.194.092 0 .17.06.222.194l3.18 7.564c.013.036.039.097.039.145zM94.346 22.842c0 .11-.057.158-.173.158-.115 0-.173-.049-.173-.158v-7.648c0-.133.072-.194.202-.194.144 0 .23.073.375.242l6.077 7.285v-7.37c0-.108.057-.157.173-.157.115 0 .173.049.173.158v7.648c0 .133-.072.194-.202.194-.144 0-.23-.085-.375-.254l-6.077-7.285v7.381zM107.333 22.597c2.387 0 3.935-1.482 3.935-3.664 0-2.183-1.548-3.665-3.935-3.665s-3.935 1.482-3.935 3.665c0 2.182 1.548 3.664 3.935 3.664m0-7.597c2.614 0 4.333 1.587 4.333 3.933 0 2.345-1.72 3.933-4.333 3.933-2.614 0-4.333-1.588-4.333-3.933 0-2.346 1.72-3.933 4.333-3.933M122.74 21.366c-.08.145-.147.206-.24.206-.107 0-.174-.06-.254-.206l-3.283-5.918-.627 7.395c-.014.109-.067.157-.174.157-.12 0-.173-.048-.16-.157l.667-7.589c.014-.17.094-.254.227-.254.12 0 .2.072.267.193l3.337 5.992 3.323-5.992c.067-.12.147-.193.28-.193.134 0 .214.085.228.254l.667 7.589c.013.109-.04.157-.147.157-.12 0-.173-.048-.187-.157l-.64-7.395-3.284 5.918zM134.522 20.156l-1.976-4.72-2.041 4.72h4.017zM136 22.903c0 .06-.04.097-.13.097-.132 0-.184-.06-.236-.17l-.995-2.396h-4.252l-1.034 2.397c-.052.109-.104.169-.222.169-.092 0-.131-.036-.131-.097 0-.048.026-.109.04-.145l3.283-7.564c.053-.134.131-.194.236-.194.092 0 .17.06.222.194l3.18 7.564c.013.036.039.097.039.145zM139.365 19.46c2.43 0 3.585-.786 3.585-2.115 0-1.439-1.335-2.067-3.285-2.067a9.89 9.89 0 0 0-1.29.085v4.06c.315.024.69.036.99.036M144 22.916c0 .06-.075.084-.18.084-.15 0-.225-.06-.315-.17l-2.835-3.177c-.39.06-.825.084-1.305.084-.18 0-.72-.012-.99-.036v3.142c0 .109-.06.157-.18.157-.135 0-.195-.048-.195-.157v-7.432c0-.205 0-.278.36-.326.33-.049.855-.085 1.32-.085 2.13 0 3.69.761 3.69 2.345 0 1.135-.795 1.92-2.31 2.235l2.865 3.19c.06.073.075.11.075.146M150.155 22.597c.724 0 1.421-.163 1.995-.49.3-.175.424-.303.52-.303.081 0 .15.07.15.128 0 .093-.178.222-.41.362-.615.361-1.353.572-2.255.572-2.583 0-4.155-1.67-4.155-3.98 0-2.322 1.6-3.886 4.141-3.886.861 0 1.599.198 2.255.56.3.164.424.28.424.35 0 .07-.069.129-.15.129-.096 0-.22-.117-.52-.28a4.168 4.168 0 0 0-2.009-.49c-2.282 0-3.758 1.412-3.758 3.582 0 2.194 1.49 3.746 3.772 3.746M162 15.158v7.684c0 .11-.06.158-.18.158-.134 0-.193-.049-.193-.158V18.94h-6.254v3.903c0 .11-.06.158-.179.158-.134 0-.194-.049-.194-.158v-7.684c0-.11.06-.158.18-.158.134 0 .193.049.193.158v3.503h6.254v-3.503c0-.11.06-.158.179-.158.134 0 .194.049.194.158M168.146 18.655c.126 0 .182.05.182.148 0 .086-.056.136-.182.136h-3.796v3.778h4.468c.126 0 .182.05.182.148 0 .086-.056.135-.182.135h-4.608c-.14 0-.21-.061-.21-.185v-7.63c0-.124.07-.185.21-.185h4.44c.126 0 .182.05.182.148 0 .086-.056.135-.182.135h-4.3v3.372h3.796zM174.836 22.719c.113 0 .164.049.164.147 0 .085-.05.134-.164.134h-3.647c-.126 0-.189-.061-.189-.183v-7.658c0-.11.05-.159.152-.159.113 0 .164.049.164.159v7.56h3.52zM177.35 22.842c0 .11-.056.158-.168.158-.126 0-.182-.049-.182-.158v-7.684c0-.11.056-.158.168-.158.126 0 .182.049.182.158v7.684z"/>
    </g>
</svg>
