<?xml version="1.0" encoding="utf-8"?>
<!-- Generator: Adobe Illustrator 23.0.1, SVG Export Plug-In . SVG Version: 6.00 Build 0)  -->
<svg version="1.1" id="Layer_1" xmlns="http://www.w3.org/2000/svg" xmlns:xlink="http://www.w3.org/1999/xlink" x="0px" y="0px"
	 viewBox="0 0 26 34" style="enable-background:new 0 0 26 34;" xml:space="preserve">
<path d="M25.8,21.3c-0.3-0.3-0.7-0.3-1,0L13.7,31.8V0.6C13.7,0.3,13.4,0,13,0c-0.4,0-0.7,0.3-0.7,0.6v31.1L1.2,21.3
	c-0.3-0.3-0.7-0.3-1,0c-0.3,0.2-0.3,0.6,0,0.9c0,0,0,0,0,0l12.3,11.6c0.3,0.3,0.7,0.3,1,0l12.3-11.6C26.1,22,26.1,21.6,25.8,21.3
	C25.8,21.3,25.8,21.3,25.8,21.3z"/>
</svg>
