<svg width="53" height="20" viewBox="0 0 53 20" fill="none" xmlns="http://www.w3.org/2000/svg">
<path id="Shape Copy" d="M9.2166 18.8616C9.39899 18.6768 9.39899 18.3765 9.2166 18.1917L1.59658 10.4733L51.5323 10.4733C51.7905 10.4733 52 10.2611 52 9.99959C52 9.7381 51.7905 9.52589 51.5323 9.52589L1.59658 9.52589L9.21566 1.80837C9.39805 1.62363 9.39805 1.3233 9.21566 1.13856C9.03328 0.953814 8.73678 0.953814 8.55439 1.13856L0.137493 9.66421C0.0944672 9.70779 0.0598602 9.76084 0.0355415 9.81863C0.0121574 9.87642 0 9.938 0 9.99959C0 10.0612 0.0121574 10.1227 0.0355415 10.1805C0.0589256 10.2393 0.0935326 10.2914 0.137493 10.335L8.55439 18.8606C8.73772 19.0463 9.03328 19.0463 9.2166 18.8616Z" fill="white" stroke="#F4F4F4" stroke-width="1.5"/>
</svg>
