<svg xmlns="http://www.w3.org/2000/svg" width="24" height="24" viewBox="0 0 24 24">
    <g fill="#FFF" fill-rule="nonzero">
        <path d="M7.867 10.063a1 1 0 0 0 1-1v-3.9A3.166 3.166 0 0 1 12.029 2a3.166 3.166 0 0 1 3.162 3.162v3.9a1 1 0 0 0 2 0v-3.9A5.168 5.168 0 0 0 12.03 0a5.168 5.168 0 0 0-5.162 5.162v3.9a1 1 0 0 0 1 1z"/>
        <path d="M23.5 7.816h-5.308v1.247c0 1.102-.898 2-2 2-1.103 0-2-.898-2-2V7.814H9.866v1.247c0 1.104-.897 2-2 2s-2-.896-2-2V7.816H.5c-.276 0-.447.217-.381.485L3.617 22.55C3.83 23.351 4.671 24 5.5 24h13c.829 0 1.671-.65 1.884-1.45L23.88 8.301c.066-.268-.105-.486-.381-.486z"/>
    </g>
</svg>
