<svg width="39" height="23" viewBox="0 0 39 23" fill="none" xmlns="http://www.w3.org/2000/svg">
<path fill-rule="evenodd" clip-rule="evenodd" d="M12.717 9.90901C15.7139 9.90901 17.9741 8.60782 17.9741 6.88251C17.9741 5.15721 15.7139 3.85571 12.717 3.85571C9.72033 3.85571 7.46045 5.15721 7.46045 6.88251C7.46045 8.60782 9.72033 9.90901 12.717 9.90901ZM12.7169 5.11857C15.0133 5.11857 16.729 6.04991 16.729 6.88251C16.729 7.71511 15.0133 8.64646 12.7169 8.64646C10.421 8.64646 8.70499 7.71511 8.70499 6.88251C8.70499 6.04991 10.421 5.11857 12.7169 5.11857Z" fill="black"/>
<path fill-rule="evenodd" clip-rule="evenodd" d="M38.1737 12.5022H25.434V7.17477C25.434 7.14349 25.4292 7.11344 25.425 7.08339C25.4286 7.01653 25.434 6.94999 25.434 6.88252C25.434 3.02312 19.8483 0 12.7167 0C5.58577 0 0 3.02312 0 6.88252C0 6.94999 0.00574419 7.01653 0.00906977 7.08339C0.00453488 7.11344 0 7.14349 0 7.17477V17.9241C0 17.9648 0.00453488 18.0044 0.0117907 18.0433C0.00453488 18.082 0 18.1215 0 18.1623C0 21.3044 6.552 23 12.7167 23H38.1737C38.5172 23 38.7962 22.7173 38.7962 22.3689V13.1336C38.7962 12.7849 38.5172 12.5022 38.1737 12.5022ZM24.1894 12.5022H20.1431C21.87 11.8395 23.2667 10.9483 24.1894 9.90135V12.5022ZM12.7166 1.26255C18.9357 1.26255 24.1892 3.83609 24.1892 6.88252C24.1892 9.92895 18.9357 12.5022 12.7166 12.5022C6.49806 12.5022 1.24454 9.92895 1.24454 6.88252C1.24454 3.83609 6.49806 1.26255 12.7166 1.26255ZM37.5515 21.7374H33.8716V17.7514C33.8716 17.4027 33.5934 17.12 33.2494 17.12C32.9059 17.12 32.6269 17.4027 32.6269 17.7514V21.7374H25.434V17.7514C25.434 17.4027 25.1555 17.12 24.8118 17.12C24.468 17.12 24.1893 17.4027 24.1893 17.7514V21.7374H16.9964V17.7514C16.9964 17.4027 16.7176 17.12 16.3739 17.12C16.0301 17.12 15.7514 17.4027 15.7514 17.7514V21.7374H12.7166C11.2331 21.7374 9.83547 21.6402 8.55845 21.4716V17.7514C8.55845 17.4027 8.28001 17.12 7.93626 17.12C7.59252 17.12 7.31377 17.4027 7.31377 17.7514V21.2778C3.63689 20.615 1.24459 19.3402 1.24459 18.1623C1.24459 18.1215 1.24005 18.082 1.2328 18.0433C1.24005 18.0044 1.24459 17.9648 1.24459 17.9241V9.90135C3.27682 12.2075 7.59887 13.7647 12.7166 13.7647H37.5515V21.7374Z" fill="black"/>
</svg>
